<mxfile host="app.diagrams.net" modified="2024-03-17T01:00:09.725Z" agent="Mozilla/5.0 (X11; Linux x86_64) AppleWebKit/537.36 (KHTML, like Gecko) Chrome/122.0.0.0 Safari/537.36" version="24.0.7" etag="olqlNXdUq7LS5zIE63Je" type="github">
  <diagram name="Page-1" id="zJqC7b9IynARBR749QTm">
    <mxGraphModel>
      <root>
        <mxCell id="0" />
        <mxCell id="1" parent="0" />
      </root>
    </mxGraphModel>
  </diagram>
</mxfile>
